<?xml version="1.0" encoding="UTF-8" standalone="no"?>
<!-- Created with Inkscape (http://www.inkscape.org/) -->

<svg
   width="142.32375mm"
   height="105.02045mm"
   viewBox="0 0 142.32375 105.02045"
   version="1.1"
   id="svg1"
   sodipodi:docname="Hyati medical.svg"
   xml:space="preserve"
   inkscape:version="1.3.2 (091e20e, 2023-11-25, custom)"
   xmlns:inkscape="http://www.inkscape.org/namespaces/inkscape"
   xmlns:sodipodi="http://sodipodi.sourceforge.net/DTD/sodipodi-0.dtd"
   xmlns:xlink="http://www.w3.org/1999/xlink"
   xmlns="http://www.w3.org/2000/svg"
   xmlns:svg="http://www.w3.org/2000/svg"><sodipodi:namedview
     id="namedview1"
     pagecolor="#ffffff"
     bordercolor="#000000"
     borderopacity="0.25"
     inkscape:showpageshadow="2"
     inkscape:pageopacity="0.0"
     inkscape:pagecheckerboard="0"
     inkscape:deskcolor="#d1d1d1"
     inkscape:document-units="mm"
     inkscape:zoom="0.69219275"
     inkscape:cx="925.3203"
     inkscape:cy="340.22315"
     inkscape:window-width="1920"
     inkscape:window-height="991"
     inkscape:window-x="-9"
     inkscape:window-y="-9"
     inkscape:window-maximized="1"
     inkscape:current-layer="layer2"><inkscape:page
       x="7.1665468e-06"
       y="-1.5326127e-06"
       width="142.32375"
       height="105.02045"
       id="page1"
       margin="0"
       bleed="0" /></sodipodi:namedview><defs
     id="defs1"><linearGradient
       id="linearGradient23"
       inkscape:collect="always"
       inkscape:label="Green "><stop
         style="stop-color:#15ff15;stop-opacity:1;"
         offset="0"
         id="stop23" /><stop
         style="stop-color:#00ea00;stop-opacity:0.88679248;"
         offset="1"
         id="stop24" /></linearGradient><radialGradient
       id="paint0_radial"
       cx="0"
       cy="0"
       r="1"
       gradientUnits="userSpaceOnUse"
       gradientTransform="matrix(12.462953,-7.0248057,5.5724508,9.8862791,9.38479,8.34769)"><stop
         offset="0.2479"
         stop-color="#FF0000"
         id="stop7" /><stop
         offset="0.8639"
         stop-color="#C20000"
         id="stop8" /></radialGradient><linearGradient
       inkscape:collect="always"
       xlink:href="#paint0_radial"
       id="linearGradient22"
       x1="90.039154"
       y1="100.27001"
       x2="105.09815"
       y2="100.27001"
       gradientUnits="userSpaceOnUse" /><linearGradient
       inkscape:collect="always"
       xlink:href="#linearGradient23"
       id="linearGradient24"
       x1="76.899696"
       y1="103.32083"
       x2="94.301224"
       y2="103.32083"
       gradientUnits="userSpaceOnUse" /><linearGradient
       inkscape:collect="always"
       xlink:href="#linearGradient23"
       id="linearGradient26"
       x1="94.482315"
       y1="102.80943"
       x2="110.10445"
       y2="102.80943"
       gradientUnits="userSpaceOnUse" /></defs><g
     inkscape:label="Layer 1"
     inkscape:groupmode="layer"
     id="layer1"
     transform="translate(-27.349772,-73.014661)"><g
       id="g26"><g
         id="g42"
         transform="matrix(-0.54212692,0,0,0.50796576,154.2736,77.607662)"
         inkscape:label="Stito"><path
           d="M 28.179773,98.3 C 11.389773,103.13 2.1697665,79.47 -1.3502364,71.03 -8.3702424,54.17 -26.68024,42.41 -25.330241,30 -23.980242,17.59 -8.7302424,18.83 -8.7302424,18.83"
           fill="none"
           stroke="#bdbdbd"
           stroke-width="6"
           stroke-linejoin="round"
           stroke-miterlimit="10"
           id="path1-2"
           style="display:inline" /><path
           d="m 27.129773,98.3 c 16.89,-4.48 11.39,-28.91 10.07,-37.96 -2.63,-18.08 7.04,-37.57 -0.49,-47.52 -7.53,-9.95 -19.98,-1.06 -19.98,-1.06"
           fill="none"
           stroke="#bdbdbd"
           stroke-width="6"
           stroke-linejoin="round"
           stroke-miterlimit="10"
           id="path2"
           style="display:inline" /><path
           d="m 37.019773,58.93 c -0.89,6.74 10.14,31.36 -6.97,38.1 -19.16,7.56 -26.3100055,-20.55 -31.3900094,-26"
           fill="none"
           stroke="#03a9f4"
           stroke-width="8"
           stroke-miterlimit="10"
           id="path3"
           style="display:inline;opacity:1;stroke:#1eb0ec;stroke-opacity:1" /><path
           d="m 0.25976506,73.54 c 0,0 10.77000794,11.36 23.40000794,6.15 11.97,-4.94 13.83,-18.05 13.83,-18.05"
           fill="none"
           stroke="#03a9f4"
           stroke-width="5"
           stroke-miterlimit="10"
           id="path4"
           style="display:inline;fill:none;fill-opacity:1;stroke:#1eb0ec;stroke-opacity:1" /><path
           d="m -4.5402389,14.04 c -1.5000015,0.01 -2.8200025,0.73 -3.690003,1.82 l -1.240001,-0.98 c -1.1300011,-0.89 -2.7900011,-0.08 -2.7800011,1.36 l 0.04,5.19 c 0.01,1.44 1.68,2.23 2.7900011,1.32 l 1.210001,-0.98 c 0.8800005,1.09 2.2200015,1.8 3.730003,1.79 2.630002,-0.02 4.75000396,-2.17 4.73000396,-4.8 -0.02,-2.63 -2.16000196,-4.74 -4.79000396,-4.72 z"
           fill="#616161"
           id="path8-9" /><path
           d="m 20.759773,12.22 -2.65,-4.46 c -0.74,-1.24 -2.58,-1.07 -3.08,0.27 l -0.55,1.48 c -1.31,-0.49 -2.81,-0.42 -4.1,0.35 a 4.76,4.76 0 0 0 -1.6600015,6.53 4.76,4.76 0 0 0 6.5300015,1.66 c 1.3,-0.77 2.08,-2.07 2.27,-3.46 l 1.54,0.21 c 1.42,0.19 2.44,-1.34 1.7,-2.58 z"
           fill="#616161"
           id="path9" /><path
           id="circle2"
           style="display:inline;fill:#878787"
           d="M 158.90544,-3.0554513 A 15.028712,15.474546 0 0 1 173.93415,12.419094 15.028712,15.474546 0 0 1 158.90544,27.893649 15.028712,15.474546 0 0 1 143.87673,12.419094 15.028712,15.474546 0 0 1 158.90544,-3.0554513 Z" /><path
           id="circle3"
           style="display:inline;fill:#bdbdbd"
           d="M 157.8214,-1.7363097 A 13.215412,13.607453 0 0 1 171.03681,11.871143 13.215412,13.607453 0 0 1 157.8214,25.478598 13.215412,13.607453 0 0 1 144.60599,11.871143 13.215412,13.607453 0 0 1 157.8214,-1.7363097 Z" /><path
           d="m 148.26216,13.312052 c 0.85088,2.107906 3.36545,-32.321709 11.52037,7.387193 0.76868,-0.182651 1.51765,-0.466773 2.2272,-0.84222 l 1.32056,-0.690011 c 2.47358,1.948267 3.41965,3.531234 6.28742,4.069037 1.3107,-1.380023 2.35532,-2.993431 3.08458,-4.759049 -0.01,0 -0.0197,-0.01015 -0.0296,-0.01015 0.01,0 0.0197,-0.01015 0.0394,-0.01015 1.20229,-2.912265 1.56692,-6.230411 0.81795,-9.558707 -0.0887,-0.375448 -0.1971,-0.7306015 -0.3055,-1.085755 l -2.75937,0.3145645 c 0,0 -3.49849,-0.4058897 -3.68573,-0.4972149 -0.44347,-0.2333866 -0.67999,-1.1770802 -0.95592,-1.6641479 -0.68985,-1.1770802 -1.62606,-2.2019517 -2.71996,-2.9934367 -2.2338,-1.5957148 -5.01725,-2.14829307 -7.6671,-1.5220864 -5.16397,1.2379636 -8.37666,6.555119 -7.17436,11.8621274 z"
           opacity="0.22"
           fill="#212121"
           id="path5-8"
           style="display:inline;opacity:0.371;mix-blend-mode:normal"
           sodipodi:nodetypes="cccccccccccccccc" /><path
           d="m 165.35054,20.24339 c 0,0 -0.95592,-1.927976 0.069,-3.774775 1.61621,-2.922406 3.92225,-3.206528 3.92225,-3.206528 0,0 -3.40979,-1.765621 -4.33615,-2.709314 -0.93622,-0.9335466 -5.57787,5.652014 -3.79413,7.143659 1.78373,1.491645 4.13905,2.546958 4.13905,2.546958 z"
           opacity="0.22"
           fill="#212121"
           id="path7-3"
           style="display:inline" /><path
           d="m 29.779714,98.085662 c 9.590005,21.969998 50.994733,65.802258 106.276756,33.952788 55.28202,-31.84947 47.46167,-127.4201162 83.1811,-107.393845 26.49714,14.85575 -0.81773,53.463226 -24.29145,20.814203 -11.5928,-16.124146 -23.21826,-25.895758 -33.6476,-31.66825"
           fill="none"
           stroke="#03a9f4"
           stroke-width="8"
           stroke-miterlimit="10"
           id="path6-9"
           style="display:inline;opacity:1;stroke:#1eb0ec;stroke-width:7.99897;stroke-dasharray:none;stroke-opacity:1"
           sodipodi:nodetypes="czssc" /><path
           id="circle9"
           style="display:inline;opacity:1;fill:#1eb0ec;fill-opacity:1"
           d="m 156.01796,0.78020655 a 8.9876624,9.2542855 0 0 1 8.98766,9.25428545 8.9876624,9.2542855 0 0 1 -8.98766,9.254288 8.9876624,9.2542855 0 0 1 -8.98767,-9.254288 8.9876624,9.2542855 0 0 1 8.98767,-9.25428545 z" /><path
           id="circle10"
           style="fill:#d1d1d1"
           d="m 155.31826,2.3834709 a 6.9772642,7.1842479 0 0 1 6.97726,7.1842481 6.9772642,7.1842479 0 0 1 -6.97726,7.184245 6.9772642,7.1842479 0 0 1 -6.97726,-7.184245 6.9772642,7.1842479 0 0 1 6.97726,-7.1842481 z" /><path
           d="M 9.9997725,15.11 C 9.169772,13.92 9.329772,11.7 10.759773,10.69 c 1.43,-1.01 3.59,-0.57 4.42,0.76 0.93,1.48 -1.5,0.15 -2.93,1.16 -1.43,1.01 -1.25,3.94 -2.2500005,2.5 z"
           fill="#757575"
           id="path10" /><path
           d="m -7.3602414,17.25 c 0.3600005,-1.41 2.130002,-2.74 3.830003,-2.32 1.7000015,0.42 2.78000249,2.33 2.320002,3.83 -0.5100005,1.67 -1.100001,-1.04 -2.800002,-1.45 -1.6900015,-0.42 -3.7800035,1.64 -3.350003,-0.06 z"
           fill="#757575"
           id="path11" /></g><path
         d="m 115.08703,73.014665 c -0.33369,0 -0.66727,0.04303 -1.00097,0.129191 -0.33369,0.08616 -0.63969,0.223862 -0.91777,0.413411 -0.26418,0.172318 -0.48639,0.396603 -0.66715,0.672311 -0.16685,0.258475 -0.2574,0.576916 -0.2713,0.956014 -0.15294,2.722609 -0.28512,5.204384 -0.39636,7.444506 -0.0973,2.240122 -0.18059,4.333571 -0.25011,6.280754 -0.0695,1.947183 -0.13195,3.799649 -0.18759,5.557284 -0.0417,1.757634 -0.0838,3.515429 -0.12557,5.273063 -1.79334,0.0161 -3.5278,0.04119 -5.22397,0.07235 l 1.86604,0.948781 c 1.25024,0.63546 1.89256,1.4608 1.93941,2.2934 0.45205,-9.9e-4 0.87692,-0.006 1.33532,-0.006 -0.0278,1.06837 -0.0486,2.14522 -0.0625,3.23081 -0.0139,1.0856 -0.028,2.206 -0.0419,3.36052 -0.0139,1.15452 -0.0275,2.35186 -0.0413,3.59255 v 3.87728 5.86734 c 0,2.03334 0.0973,3.7395 0.29198,5.11804 0.19465,1.37854 0.4866,2.48981 0.87591,3.33416 0.40322,0.84436 0.90333,1.44733 1.5012,1.80919 0.59788,0.3791 1.29313,0.56896 2.08566,0.56896 0.58397,0 1.19597,-0.0694 1.83555,-0.20722 0.63958,-0.12063 1.32756,-0.30997 2.06447,-0.56844 0.75082,-0.25848 1.55744,-0.58605 2.41949,-0.98237 0.86205,-0.39633 1.79358,-0.8616 2.79467,-1.39578 l -0.58395,-2.11925 c -0.90376,0.41356 -1.66147,0.68036 -2.27324,0.80098 -0.61178,0.10339 -1.20244,0.15555 -1.77251,0.15555 -0.79253,0 -1.45343,-0.18986 -1.98179,-0.56896 -0.52835,-0.3791 -0.95196,-0.97346 -1.27175,-1.78335 -0.30589,-0.82712 -0.52186,-1.88676 -0.64699,-3.17914 -0.12514,-1.29237 -0.18759,-2.85222 -0.18759,-4.67878 0,-2.75707 0.007,-5.40186 0.0207,-7.93492 0.0278,-2.53306 0.0627,-5.01432 0.10439,-7.44399 0.0417,-2.42967 0.10468,-4.833466 0.1881,-7.211441 0.0834,-2.395208 0.18074,-4.816738 0.29197,-7.26364 0.11124,-2.446902 0.2429,-4.962586 0.39584,-7.547343 0.16685,-2.584756 0.35472,-5.2903 0.56328,-8.1163 -0.44493,-0.241244 -0.90392,-0.421981 -1.37666,-0.542603 -0.45883,-0.137853 -0.88973,-0.206705 -1.29295,-0.206705 z"
         style="font-size:95.1012px;font-family:Gabriola;-inkscape-font-specification:'Gabriola, Normal';fill:#1eb0ec;fill-opacity:1;stroke:#1c274c;stroke-width:0"
         id="path6" /><path
         d="m 94.301221,103.40712 -2.068091,-1.05109 c -1.162693,-0.59097 -1.800944,-1.3462 -1.92288,-2.11874 -0.440588,0.0176 -0.845207,0.0272 -1.293461,0.0465 0.05562,-2.808767 0.1113,-5.298632 0.166915,-7.469827 0.05562,-2.188427 0.104534,-4.101139 0.146244,-5.738151 0.04171,-1.637012 0.07658,-3.015604 0.104386,-4.135665 0.02781,-1.137293 0.04134,-2.06783 0.04134,-2.791561 0,-1.10283 -0.02758,-2.085005 -0.0832,-2.94659 -0.05562,-0.861585 -0.215381,-1.585566 -0.479557,-2.171444 -0.250272,-0.60311 -0.639534,-1.051165 -1.167887,-1.344104 -0.528353,-0.31017 -1.258478,-0.465088 -2.190047,-0.465088 -0.945474,0 -2.120544,0.164041 -3.52485,0.491443 -1.404306,0.310171 -3.114353,0.784045 -5.130436,1.421619 l 0.208773,2.145089 c 1.432114,-0.258476 2.606667,-0.387574 3.524332,-0.387574 0.681297,0 1.237608,0.08607 1.668632,0.258383 0.444929,0.155085 0.792559,0.413281 1.042831,0.775146 0.250273,0.361866 0.416804,0.83574 0.500228,1.421619 0.09733,0.568646 0.146244,1.2582 0.146244,2.068091 0,4.204536 -0.02758,8.348918 -0.0832,12.432832 -0.04171,4.083915 -0.111444,8.227782 -0.208773,12.432312 -0.09733,4.20454 -0.21546,8.53827 -0.3545,13.00128 -0.125136,4.44578 -0.271368,9.14149 -0.438216,14.08699 l 0.375687,0.0517 4.942851,-0.77515 0.709001,-28.94965 c 1.860335,-0.11208 3.639338,-0.20603 5.367631,-0.28836 z"
         style="font-size:95.1012px;font-family:Gabriola;-inkscape-font-specification:'Gabriola, Normal';fill:url(#linearGradient24);fill-opacity:1;stroke:#1c274c;stroke-width:0"
         id="path5" /><text
         xml:space="preserve"
         style="font-style:normal;font-variant:normal;font-weight:normal;font-stretch:normal;font-size:28.2222px;font-family:Gabriola;-inkscape-font-specification:'Gabriola, Normal';font-variant-ligatures:normal;font-variant-caps:normal;font-variant-numeric:normal;font-variant-east-asian:normal;display:inline;fill:#000000;fill-opacity:1;stroke:#1c274c;stroke-width:0"
         x="39.731758"
         y="171.0898"
         id="text2"><tspan
           sodipodi:role="line"
           id="tspan2"
           style="font-style:normal;font-variant:normal;font-weight:normal;font-stretch:normal;font-size:28.2222px;font-family:Gabriola;-inkscape-font-specification:'Gabriola, Normal';font-variant-ligatures:normal;font-variant-caps:normal;font-variant-numeric:normal;font-variant-east-asian:normal;fill:#000000;fill-opacity:1;stroke-width:0"
           x="39.731758"
           y="171.0898">Hyati medical</tspan></text><path
         d="m 96.936719,96.584285 c -1.702458,0 -3.404679,0.32992 -4.703589,0.990121 -1.435131,0.729439 -2.073388,1.70933 -1.92288,2.662884 0.121935,0.77254 0.760192,1.52777 1.92288,2.11874 l 2.068091,1.05109 1.067635,0.54312 c 9.91e-4,-9e-5 1.2823,-0.13581 3.057694,-0.70486 0.836366,-0.26808 1.7727,-0.62348 2.75435,-1.12241 1.75805,-0.89358 2.66619,-1.72423 3.1347,-2.278418 0.34863,-0.412395 0.46095,-0.675928 0.46095,-0.675928 l -3.13573,-1.594218 c -1.29891,-0.660201 -3.001643,-0.990121 -4.704101,-0.990121 z"
         style="fill:url(#linearGradient22);fill-opacity:0.890196;stroke:#f9f9f9;stroke-width:0.5;stroke-dasharray:none;stroke-opacity:1"
         id="path8" /><path
         d="m 104.77655,99.168624 c 0,0 -0.11232,0.263532 -0.46095,0.675928 -0.46851,0.554188 -1.37665,1.384838 -3.1347,2.278418 -0.98165,0.49893 -1.917984,0.85433 -2.75435,1.12241 -1.775391,0.56905 -3.056186,0.70477 -3.057177,0.70486 l 3.135209,1.59371 c 2.597828,1.3204 6.809868,1.3204 9.407698,0 1.34758,-0.68495 1.98991,-1.5908 1.93941,-2.48822 -0.0469,-0.8326 -0.68917,-1.65794 -1.93941,-2.2934 l -1.86604,-0.948784 z"
         style="fill:url(#linearGradient26);fill-opacity:1;stroke:#f9f9f9;stroke-width:0.5;stroke-dasharray:none;stroke-opacity:1"
         id="path7" /></g></g></svg>
